<svg xmlns="http://www.w3.org/2000/svg" viewBox="0 0 512 512">
  <defs>
    <linearGradient id="bg" x1="0%" x2="100%" y1="0%" y2="100%">
      <stop offset="0%" stop-color="#08111f" />
      <stop offset="55%" stop-color="#11233c" />
      <stop offset="100%" stop-color="#1e3f63" />
    </linearGradient>
    <linearGradient id="glow" x1="0%" x2="100%" y1="0%" y2="0%">
      <stop offset="0%" stop-color="#63f3ff" />
      <stop offset="100%" stop-color="#59a7ff" />
    </linearGradient>
    <filter id="soft-glow" x="-20%" y="-20%" width="140%" height="140%">
      <feGaussianBlur result="blur" stdDeviation="14" />
      <feMerge>
        <feMergeNode in="blur" />
        <feMergeNode in="SourceGraphic" />
      </feMerge>
    </filter>
  </defs>

  <rect width="512" height="512" rx="112" fill="url(#bg)" />
  <rect x="52" y="52" width="408" height="408" rx="88" fill="none" opacity="0.22" stroke="#c7f7ff" stroke-width="4" />
  <path
    d="M96 152c0-22.091 17.909-40 40-40h240c22.091 0 40 17.909 40 40v24c0 22.091-17.909 40-40 40H136c-22.091 0-40-17.909-40-40zm0 112c0-22.091 17.909-40 40-40h184c22.091 0 40 17.909 40 40v24c0 22.091-17.909 40-40 40H136c-22.091 0-40-17.909-40-40zm0 112c0-22.091 17.909-40 40-40h136c22.091 0 40 17.909 40 40v24c0 22.091-17.909 40-40 40H136c-22.091 0-40-17.909-40-40z"
    fill="#0f1725"
    opacity="0.72"
  />
  <path
    d="M128 160h256M128 272h192M128 384h144"
    fill="none"
    filter="url(#soft-glow)"
    opacity="0.96"
    stroke="url(#glow)"
    stroke-linecap="round"
    stroke-width="24"
  />
  <circle cx="388" cy="272" r="28" fill="#7af7ff" opacity="0.92" />
</svg>
